<svg xmlns="http://www.w3.org/2000/svg" xmlns:xlink="http://www.w3.org/1999/xlink" width="251" height="243" viewBox="0 0 251 243">
  <defs>
    <linearGradient id="linear-gradient" x1="0.929" y1="0.06" x2="0.04" y2="0.965" gradientUnits="objectBoundingBox">
      <stop offset="0" stop-color="#c700a8"/>
      <stop offset="0.47" stop-color="#d43c60"/>
      <stop offset="0.783" stop-color="#ff7d2b"/>
      <stop offset="1" stop-color="#ffd500"/>
    </linearGradient>
  </defs>
  <g id="Group_333" data-name="Group 333" transform="translate(-131 -129)">
    <rect id="Rectangle_1613" data-name="Rectangle 1613" width="240" height="232" rx="54" transform="translate(136 140)" fill="url(#linear-gradient)"/>
    <rect id="Rectangle_1614" data-name="Rectangle 1614" width="251" height="19" transform="translate(131 192)" fill="#fff"/>
    <rect id="Rectangle_1615" data-name="Rectangle 1615" width="20" height="82" transform="translate(177.312 139.301) rotate(-31)" fill="#fff"/>
    <rect id="Rectangle_1616" data-name="Rectangle 1616" width="20" height="82" transform="translate(268.312 140.712) rotate(-31)" fill="#fff"/>
    <path id="Polygon_108" data-name="Polygon 108" d="M36.954,3.579a4,4,0,0,1,6.092,0L74.389,40.408A4,4,0,0,1,71.343,47H8.657a4,4,0,0,1-3.046-6.592Z" transform="translate(296 333) rotate(180)" fill="#fff"/>
    <rect id="Rectangle_1638" data-name="Rectangle 1638" width="30" height="46" rx="2" transform="translate(241 243)" fill="#fff"/>
  </g>
</svg>
